<?xml version="1.0" encoding="utf-8"?>
<!-- Generator: Adobe Illustrator 16.0.0, SVG Export Plug-In . SVG Version: 6.00 Build 0)  -->
<!DOCTYPE svg PUBLIC "-//W3C//DTD SVG 1.1//EN" "http://www.w3.org/Graphics/SVG/1.1/DTD/svg11.dtd">
<svg version="1.1" id="fuente_1_" xmlns="http://www.w3.org/2000/svg" xmlns:xlink="http://www.w3.org/1999/xlink" x="0px" y="0px"
	 width="226.8px" height="122.4px" viewBox="0 0 226.8 122.4" enable-background="new 0 0 226.8 122.4" xml:space="preserve">
<g id="rectangulo_xA0_Image_1_">
	<g>
		<path fill="#FE304E" d="M8.88,91.44c0-12.4,0-24.8,0-37.2c0.183-0.05,0.203-0.193,0.239-0.356c0.632-2.865,2.132-5.13,4.468-6.945
			c1.488-1.156,3.231-1.602,4.893-2.298c12.4,0,24.8,0,37.2,0c0.05,0.183,0.193,0.203,0.356,0.239
			c2.865,0.632,5.13,2.132,6.945,4.468c1.156,1.488,1.602,3.231,2.298,4.893c0,12.4,0,24.8,0,37.2
			c-0.654,1.77-1.167,3.606-2.411,5.097c-2.243,2.686-5.036,4.458-8.593,4.479c-11.463,0.066-22.927,0.066-34.391,0
			c-3.558-0.021-6.351-1.793-8.593-4.479C10.047,95.047,9.535,93.21,8.88,91.44z M17.76,72.756c0,4.118,0.058,8.237-0.029,12.354
			c-0.034,1.576,0.543,2.83,1.422,4.014c0.317,0.428,0.792,0.736,1.138,1.146c1.041,1.232,2.33,1.895,3.961,1.894
			c8.556-0.006,17.112-0.009,25.668,0.003c1.239,0.002,2.312-0.38,3.227-1.197c0.49-0.438,0.945-0.916,1.412-1.38
			c1.081-1.075,1.835-2.319,1.837-3.89c0.011-8.437-0.029-16.873,0.035-25.309c0.012-1.591-0.709-2.782-1.494-3.995
			c-0.265-0.41-0.764-0.661-1.099-1.035c-1.037-1.159-2.275-1.845-3.868-1.844c-8.596,0.007-17.192,0.001-25.788,0.009
			c-0.424,0-0.834,0.047-1.271,0.167c-1.906,0.525-3.061,1.963-4.147,3.402c-0.749,0.992-1.067,2.197-1.036,3.546
			C17.82,64.678,17.76,68.718,17.76,72.756z"/>
	</g>
</g>
<g id="Elipse_2">
	<g>
		<circle fill="#FF304E" cx="36.84" cy="72.6" r="6.12"/>
	</g>
</g>
<g id="Capa_5_xA0_Image_1_">
	<g>
		<path fill-rule="evenodd" clip-rule="evenodd" fill="#FE314E" d="M53.52,8.4c4.645,0.082,9.27,0.515,13.734,1.771
			c2.521,0.71,5.038,1.583,7.409,2.799c3.288,1.687,6.436,3.545,9.359,5.841c4.946,3.884,8.888,8.565,11.968,14.021
			c1.776,3.146,3.067,6.472,4.124,9.923c0.815,2.662,1.211,5.383,1.646,8.107c0.235,1.474,0.221,2.965,0.275,4.451
			c0.021,0.574-0.228,0.806-0.764,0.808c-2.702,0.012-5.404,0.021-8.106,0.038c-0.416,0.002-0.716,0.037-0.708-0.593
			c0.038-2.905-0.327-5.769-1.096-8.574c-0.718-2.616-1.559-5.195-2.794-7.616c-2.069-4.054-4.537-7.866-7.947-10.91
			c-3.909-3.49-8.251-6.389-13.232-8.15C62.914,18.735,58.294,17.861,53.52,18C53.52,14.8,53.52,11.6,53.52,8.4z"/>
		<path fill-rule="evenodd" clip-rule="evenodd" fill="#FE314E" d="M83.254,54.072c0.106,2.108,0.106,2.088-1.654,2.115
			c-2.229,0.034-4.458,0.103-6.688,0.158c-0.831,0.021-1.21-0.201-1.235-1.209c-0.116-4.686-2.029-8.65-5.097-12.129
			c-1.878-2.13-4.2-3.611-6.759-4.728c-2.155-0.94-4.452-1.504-6.796-1.504c-1.227,0-1.174-0.755-1.196-1.408
			c-0.079-2.383-0.02-4.771-0.083-7.154c-0.027-0.993,0.501-1.136,1.272-1.075c4.437,0.346,8.72,1.224,12.709,3.339
			c4.043,2.145,7.496,4.95,10.154,8.676c2.12,2.973,3.535,6.272,4.511,9.801C82.898,50.784,83.078,52.624,83.254,54.072z"/>
	</g>
</g>
<g id="cuby">
	<g>
		<path fill="#1C8BB9" d="M96.695,99.461c-2.376,0.49-4.404,0.737-6.084,0.737c-2.689,0-5.137-0.421-7.344-1.261
			c-2.208-0.839-4.089-2.016-5.644-3.527c-1.555-1.513-2.754-3.323-3.6-5.437c-0.846-2.111-1.268-4.439-1.268-6.983
			c0-2.64,0.434-5.063,1.304-7.272c0.869-2.207,2.082-4.104,3.636-5.688s3.423-2.819,5.608-3.708
			c2.184-0.888,4.547-1.332,7.092-1.332c1.584,0,3.492,0.28,5.724,0.838c2.232,0.559,4.403,1.324,6.516,2.295l-2.592,5.291
			c-1.201-0.479-2.245-0.864-3.132-1.152c-0.889-0.288-1.704-0.527-2.448-0.72c-0.745-0.191-1.429-0.324-2.052-0.396
			c-0.624-0.071-1.272-0.107-1.944-0.107c-1.681,0-3.193,0.285-4.536,0.855c-1.344,0.572-2.509,1.38-3.492,2.426
			c-0.984,1.047-1.741,2.283-2.268,3.709c-0.529,1.427-0.792,3.02-0.792,4.779c0,3.472,1.019,6.23,3.06,8.275
			c2.04,2.045,4.835,3.066,8.388,3.066c1.44,0,2.868-0.167,4.284-0.504c1.415-0.335,3.276-0.911,5.58-1.728l2.664,5.33
			C101.291,98.231,99.071,98.97,96.695,99.461z"/>
		<path fill="#1C8BB9" d="M132.707,98.259c-1.205,0.574-2.787,1.053-4.74,1.437c-1.953,0.382-3.846,0.574-5.678,0.574
			c-1.496,0-3.1-0.239-4.811-0.718c-1.713-0.48-3.293-1.269-4.74-2.371c-1.447-1.102-2.653-2.526-3.617-4.275
			c-0.965-1.748-1.447-3.915-1.447-6.502v-20.55h6.624v20.417c0,1.338,0.25,2.508,0.75,3.51c0.498,1.004,1.143,1.827,1.928,2.472
			c0.785,0.646,1.664,1.135,2.641,1.47c0.975,0.334,1.963,0.5,2.963,0.5c2.045,0,3.688-0.155,4.926-0.466
			c1.236-0.311,2.426-0.87,3.568-1.683v-26.22h6.625v35.712L132.707,98.259z"/>
		<path fill="#1C8BB9" d="M176.146,89.362c-0.912,2.28-2.195,4.236-3.852,5.867c-1.656,1.633-3.648,2.881-5.975,3.744
			c-2.33,0.864-4.934,1.296-7.812,1.296c-2.16,0-4.201-0.228-6.121-0.684c-1.92-0.457-4.104-1.163-6.551-2.124V49.798l6.479-1.944
			V67.51c1.393-0.815,2.797-1.428,4.213-1.836c1.416-0.407,3.203-0.612,5.363-0.612c2.305,0,4.404,0.409,6.301,1.225
			c1.896,0.816,3.539,1.956,4.932,3.42c1.393,1.465,2.473,3.216,3.24,5.256c0.768,2.041,1.152,4.284,1.152,6.732
			C177.515,84.526,177.058,87.083,176.146,89.362z M170.171,77.378c-0.48-1.375-1.141-2.547-1.98-3.513s-1.824-1.726-2.951-2.281
			c-1.129-0.557-2.365-0.834-3.709-0.834c-1.68,0-3.203,0.242-4.572,0.725c-1.367,0.483-2.893,1.425-4.572,2.824V93.35
			c1.152,0.388,2.244,0.688,3.277,0.906c1.031,0.218,2.051,0.326,3.059,0.326c1.775,0,3.408-0.314,4.896-0.941
			c1.488-0.628,2.771-1.509,3.852-2.645c1.08-1.134,1.92-2.474,2.521-4.02c0.6-1.546,0.898-3.235,0.898-5.071
			C170.89,80.264,170.65,78.756,170.171,77.378z"/>
		<path fill="#1C8BB9" d="M197.673,98.758c-1.439,2.928-2.988,5.279-4.645,7.056c-1.656,1.775-3.275,3.144-4.859,4.104
			c-1.584,0.96-3.037,1.62-4.355,1.979c-1.322,0.36-2.365,0.588-3.133,0.685l-2.447-5.112c1.199-0.24,2.387-0.552,3.562-0.936
			c1.176-0.385,2.316-0.937,3.42-1.656s2.184-1.668,3.24-2.844c1.057-1.177,2.088-2.677,3.096-4.5
			c0.576-1.056,1.129-2.124,1.656-3.204s0.84-1.739,0.938-1.98l-13.609-25.56l5.4-3.024l11.447,21.744l10.729-21.744l5.328,3.024
			L197.673,98.758z"/>
	</g>
</g>
</svg>
